<svg width="142" height="50" viewBox="0 0 142 50" fill="none" xmlns="http://www.w3.org/2000/svg">
<path d="M25 0L44.3432 19.3432C47.4674 22.4674 47.4674 27.5327 44.3432 30.6569L30.6569 44.3432C27.5327 47.4674 22.4673 47.4674 19.3431 44.3432L5.65683 30.6569C2.53264 27.5327 2.53263 22.4674 5.65683 19.3432L25 0Z" fill="#30B3D5"/>
<path fill-rule="evenodd" clip-rule="evenodd" d="M34.9992 17.6574L32.0009 20.6557L42.0007 30.6555L24.999 47.6572L8.0001 30.6583L8.00022 30.6582L24.999 47.657L41.999 30.657L24.999 13.657L17.9984 20.6577L14.9996 17.6589L5.0001 27.6583L4.99902 27.6572L24.999 7.65723L34.9992 17.6574Z" fill="white"/>
<path d="M65.2596 18.778C65.1863 18.9027 65.1093 18.9943 65.0286 19.053C64.948 19.1117 64.8453 19.141 64.7206 19.141C64.5886 19.141 64.4383 19.0823 64.2696 18.965C64.101 18.8403 63.8883 18.7047 63.6316 18.558C63.3823 18.404 63.0816 18.2683 62.7296 18.151C62.3776 18.0263 61.956 17.964 61.4646 17.964C61.0026 17.964 60.5956 18.0263 60.2436 18.151C59.899 18.2683 59.6093 18.4333 59.3746 18.646C59.14 18.8513 58.9603 19.097 58.8356 19.383C58.7183 19.6617 58.6596 19.966 58.6596 20.296C58.6596 20.7213 58.766 21.0733 58.9786 21.352C59.1986 21.6307 59.4846 21.869 59.8366 22.067C60.1886 22.265 60.5883 22.4373 61.0356 22.584C61.483 22.7307 61.9413 22.8847 62.4106 23.046C62.88 23.2 63.3383 23.3797 63.7856 23.585C64.233 23.7903 64.6326 24.0507 64.9846 24.366C65.3366 24.674 65.619 25.0553 65.8316 25.51C66.0516 25.9573 66.1616 26.5073 66.1616 27.16C66.1616 27.8567 66.0406 28.5093 65.7986 29.118C65.564 29.7267 65.2193 30.2583 64.7646 30.713C64.31 31.1677 63.749 31.527 63.0816 31.791C62.4216 32.0477 61.67 32.176 60.8266 32.176C60.3206 32.176 59.8293 32.1247 59.3526 32.022C58.876 31.9267 58.425 31.791 57.9996 31.615C57.5743 31.4317 57.1746 31.2153 56.8006 30.966C56.434 30.7093 56.104 30.4233 55.8106 30.108L56.4816 28.986C56.5476 28.898 56.6246 28.8247 56.7126 28.766C56.808 28.7073 56.9143 28.678 57.0316 28.678C57.1856 28.678 57.3616 28.7587 57.5596 28.92C57.765 29.0813 58.0143 29.261 58.3076 29.459C58.6083 29.6497 58.964 29.8257 59.3746 29.987C59.7926 30.1483 60.2986 30.229 60.8926 30.229C61.3766 30.229 61.8093 30.1667 62.1906 30.042C62.572 29.91 62.891 29.7267 63.1476 29.492C63.4116 29.25 63.6133 28.9603 63.7526 28.623C63.892 28.2857 63.9616 27.9117 63.9616 27.501C63.9616 27.039 63.8553 26.6613 63.6426 26.368C63.43 26.0747 63.1476 25.829 62.7956 25.631C62.4436 25.433 62.044 25.2643 61.5966 25.125C61.1493 24.9857 60.691 24.8427 60.2216 24.696C59.7523 24.542 59.294 24.366 58.8466 24.168C58.3993 23.97 57.9996 23.7133 57.6476 23.398C57.2956 23.0753 57.0133 22.6757 56.8006 22.199C56.588 21.715 56.4816 21.121 56.4816 20.417C56.4816 19.8523 56.5916 19.306 56.8116 18.778C57.0316 18.25 57.3506 17.7843 57.7686 17.381C58.194 16.9703 58.7146 16.644 59.3306 16.402C59.9466 16.1527 60.6506 16.028 61.4426 16.028C62.33 16.028 63.144 16.171 63.8846 16.457C64.6326 16.7357 65.2816 17.139 65.8316 17.667L65.2596 18.778ZM70.5651 15.764V25.257H71.0711C71.2251 25.257 71.3534 25.235 71.4561 25.191C71.5588 25.147 71.6651 25.059 71.7751 24.927L75.1191 21.242C75.2218 21.1027 75.3354 21 75.4601 20.934C75.5848 20.8607 75.7424 20.824 75.9331 20.824H77.8911L73.9421 25.147C73.7294 25.4183 73.5021 25.6273 73.2601 25.774C73.3994 25.8693 73.5204 25.9793 73.6231 26.104C73.7331 26.2287 73.8394 26.3643 73.9421 26.511L78.1441 32H76.2191C76.0431 32 75.8891 31.9707 75.7571 31.912C75.6324 31.8533 75.5188 31.747 75.4161 31.593L71.9621 27.105C71.8521 26.9363 71.7421 26.83 71.6321 26.786C71.5221 26.7347 71.3571 26.709 71.1371 26.709H70.5651V32H68.4201V15.764H70.5651ZM85.7484 27.039C84.8757 27.0683 84.135 27.138 83.5264 27.248C82.9177 27.3507 82.4227 27.49 82.0414 27.666C81.66 27.842 81.385 28.051 81.2164 28.293C81.0477 28.5277 80.9634 28.7917 80.9634 29.085C80.9634 29.3637 81.0074 29.6057 81.0954 29.811C81.1907 30.009 81.3154 30.174 81.4694 30.306C81.6307 30.4307 81.8177 30.5223 82.0304 30.581C82.243 30.6397 82.474 30.669 82.7234 30.669C83.0534 30.669 83.354 30.636 83.6254 30.57C83.904 30.504 84.1644 30.4123 84.4064 30.295C84.6484 30.1703 84.8794 30.02 85.0994 29.844C85.3194 29.668 85.5357 29.4663 85.7484 29.239V27.039ZM79.4564 22.386C80.0797 21.792 80.7544 21.3483 81.4804 21.055C82.2137 20.7617 83.0167 20.615 83.8894 20.615C84.5274 20.615 85.092 20.7213 85.5834 20.934C86.0747 21.1393 86.489 21.429 86.8264 21.803C87.1637 22.177 87.4167 22.6243 87.5854 23.145C87.7614 23.6657 87.8494 24.2413 87.8494 24.872V32H86.8924C86.6797 32 86.5184 31.967 86.4084 31.901C86.2984 31.8277 86.2104 31.6957 86.1444 31.505L85.9134 30.526C85.6274 30.79 85.345 31.0247 85.0664 31.23C84.7877 31.428 84.4944 31.6003 84.1864 31.747C83.8857 31.8863 83.563 31.9927 83.2184 32.066C82.8737 32.1393 82.4924 32.176 82.0744 32.176C81.6344 32.176 81.22 32.1173 80.8314 32C80.45 31.8753 80.1164 31.6883 79.8304 31.439C79.5444 31.1897 79.317 30.878 79.1484 30.504C78.987 30.13 78.9064 29.6937 78.9064 29.195C78.9064 28.755 79.0237 28.3333 79.2584 27.93C79.5004 27.5193 79.889 27.1527 80.4244 26.83C80.967 26.5073 81.671 26.2433 82.5364 26.038C83.409 25.8327 84.4797 25.7153 85.7484 25.686V24.872C85.7484 24.0287 85.5687 23.398 85.2094 22.98C84.85 22.562 84.322 22.353 83.6254 22.353C83.156 22.353 82.76 22.4117 82.4374 22.529C82.122 22.6463 81.847 22.7783 81.6124 22.925C81.385 23.0643 81.1834 23.1927 81.0074 23.31C80.8387 23.4273 80.6627 23.486 80.4794 23.486C80.3327 23.486 80.2044 23.4457 80.0944 23.365C79.9917 23.2843 79.9074 23.189 79.8414 23.079L79.4564 22.386ZM92.9209 15.764V32H90.7649V15.764H92.9209ZM103.388 25.169C103.388 24.7437 103.325 24.3513 103.201 23.992C103.083 23.6327 102.907 23.321 102.673 23.057C102.438 22.793 102.152 22.5877 101.815 22.441C101.477 22.2943 101.089 22.221 100.649 22.221C99.7465 22.221 99.0352 22.4813 98.5145 23.002C98.0012 23.5227 97.6749 24.245 97.5355 25.169H103.388ZM105.159 30.405C104.895 30.713 104.59 30.9807 104.246 31.208C103.901 31.428 103.534 31.6077 103.146 31.747C102.757 31.8863 102.354 31.989 101.936 32.055C101.525 32.121 101.118 32.154 100.715 32.154C99.9445 32.154 99.2295 32.0257 98.5695 31.769C97.9169 31.505 97.3485 31.1237 96.8645 30.625C96.3879 30.119 96.0139 29.4957 95.7425 28.755C95.4785 28.007 95.3465 27.149 95.3465 26.181C95.3465 25.4037 95.4675 24.6813 95.7095 24.014C95.9515 23.3393 96.2962 22.7527 96.7435 22.254C97.1982 21.7553 97.7519 21.363 98.4045 21.077C99.0572 20.791 99.7905 20.648 100.605 20.648C101.287 20.648 101.914 20.7617 102.486 20.989C103.065 21.209 103.564 21.5317 103.982 21.957C104.4 22.3823 104.726 22.9067 104.961 23.53C105.203 24.1533 105.324 24.8647 105.324 25.664C105.324 25.994 105.287 26.2177 105.214 26.335C105.14 26.445 105.005 26.5 104.807 26.5H97.4805C97.5025 27.1673 97.5979 27.7503 97.7665 28.249C97.9352 28.7403 98.1662 29.151 98.4595 29.481C98.7602 29.811 99.1159 30.0567 99.5265 30.218C99.9372 30.3793 100.396 30.46 100.902 30.46C101.378 30.46 101.789 30.405 102.134 30.295C102.486 30.185 102.786 30.0677 103.036 29.943C103.292 29.811 103.505 29.69 103.674 29.58C103.85 29.47 104.004 29.415 104.136 29.415C104.312 29.415 104.447 29.481 104.543 29.613L105.159 30.405ZM113.411 30.141C114.005 30.141 114.511 30.0713 114.929 29.932C115.355 29.7927 115.699 29.602 115.963 29.36C116.235 29.118 116.433 28.832 116.557 28.502C116.682 28.1647 116.744 27.798 116.744 27.402C116.744 26.6173 116.473 26.0013 115.93 25.554C115.388 25.0993 114.548 24.872 113.411 24.872H110.111V30.141H113.411ZM110.111 18.041V23.211H112.806C113.958 23.211 114.812 22.98 115.369 22.518C115.934 22.0487 116.216 21.418 116.216 20.626C116.216 19.724 115.949 19.0677 115.413 18.657C114.878 18.2463 114.046 18.041 112.916 18.041H110.111ZM112.916 16.204C113.906 16.204 114.753 16.2993 115.457 16.49C116.169 16.6807 116.752 16.9557 117.206 17.315C117.661 17.6743 117.995 18.1107 118.207 18.624C118.427 19.13 118.537 19.7057 118.537 20.351C118.537 20.7323 118.479 21.099 118.361 21.451C118.244 21.803 118.064 22.133 117.822 22.441C117.58 22.7417 117.276 23.013 116.909 23.255C116.543 23.497 116.11 23.6987 115.611 23.86C117.907 24.3147 119.054 25.5137 119.054 27.457C119.054 28.1317 118.93 28.7477 118.68 29.305C118.431 29.855 118.068 30.3317 117.591 30.735C117.115 31.1383 116.528 31.45 115.831 31.67C115.135 31.89 114.343 32 113.455 32H107.768V16.204H112.916ZM126.207 20.648C127.028 20.648 127.769 20.7837 128.429 21.055C129.096 21.319 129.661 21.704 130.123 22.21C130.592 22.7087 130.951 23.3137 131.201 24.025C131.45 24.729 131.575 25.521 131.575 26.401C131.575 27.281 131.45 28.0767 131.201 28.788C130.951 29.4993 130.592 30.1043 130.123 30.603C129.661 31.1017 129.096 31.4867 128.429 31.758C127.769 32.022 127.028 32.154 126.207 32.154C125.378 32.154 124.63 32.022 123.963 31.758C123.303 31.4867 122.738 31.1017 122.269 30.603C121.799 30.1043 121.436 29.4993 121.18 28.788C120.93 28.0767 120.806 27.281 120.806 26.401C120.806 25.521 120.93 24.729 121.18 24.025C121.436 23.3137 121.799 22.7087 122.269 22.21C122.738 21.704 123.303 21.319 123.963 21.055C124.63 20.7837 125.378 20.648 126.207 20.648ZM126.207 30.482C127.263 30.482 128.051 30.1263 128.572 29.415C129.092 28.7037 129.353 27.7027 129.353 26.412C129.353 25.1213 129.092 24.1203 128.572 23.409C128.051 22.6903 127.263 22.331 126.207 22.331C125.136 22.331 124.337 22.6903 123.809 23.409C123.288 24.1203 123.028 25.1213 123.028 26.412C123.028 27.7027 123.288 28.7037 123.809 29.415C124.337 30.1263 125.136 30.482 126.207 30.482ZM137.252 32.176C136.35 32.176 135.653 31.923 135.162 31.417C134.678 30.911 134.436 30.1887 134.436 29.25V22.562H133.138C133.013 22.562 132.907 22.5253 132.819 22.452C132.738 22.3713 132.698 22.254 132.698 22.1V21.231L134.513 20.978L134.997 17.645C135.026 17.5203 135.081 17.425 135.162 17.359C135.25 17.2857 135.36 17.249 135.492 17.249H136.581V21H139.749V22.562H136.581V29.107C136.581 29.547 136.687 29.877 136.9 30.097C137.12 30.3097 137.399 30.416 137.736 30.416C137.934 30.416 138.103 30.3903 138.242 30.339C138.389 30.2877 138.513 30.2327 138.616 30.174C138.719 30.108 138.807 30.0493 138.88 29.998C138.953 29.9467 139.019 29.921 139.078 29.921C139.151 29.921 139.206 29.9393 139.243 29.976C139.287 30.0053 139.331 30.0567 139.375 30.13L140.013 31.164C139.661 31.4867 139.243 31.736 138.759 31.912C138.275 32.088 137.773 32.176 137.252 32.176Z" fill="white"/>
</svg>
