<svg width="14" height="14" viewBox="0 0 14 14" fill="none" xmlns="http://www.w3.org/2000/svg">
<path d="M1.40003 6.24328H4.84325C5.61896 6.24328 6.24328 5.61895 6.24328 4.84325V1.40003C6.24328 0.624321 5.61896 0 4.84325 0L1.40003 0.000131967C0.624321 0.000131967 0 0.624453 0 1.40016V4.84338C0.000131959 5.61895 0.624456 6.24331 1.40003 6.24331V6.24328ZM0.75682 1.40006C0.75682 1.04057 1.04055 0.756854 1.40003 0.756854H4.84325C5.20274 0.756854 5.48646 1.04058 5.48646 1.40006V4.84328C5.48646 5.20277 5.20273 5.48649 4.84325 5.48649H1.40003C1.04053 5.48649 0.75682 5.20276 0.75682 4.84328V1.40006Z" fill="white"/>
<path d="M12.6001 0.000236613H9.15686C8.38116 0.000236613 7.75684 0.624557 7.75684 1.40026V4.84349C7.75684 5.61919 8.38116 6.24351 9.15686 6.24351H12.6001C13.3758 6.24351 14.0001 5.61919 14.0001 4.84349L14 1.39992C14 0.624355 13.3757 0 12.6001 0L12.6001 0.000236613ZM13.2433 4.84345C13.2433 5.20294 12.9596 5.48666 12.6001 5.48666H9.15686C8.79737 5.48666 8.51366 5.20293 8.51366 4.84345V1.40023C8.51366 1.04074 8.79738 0.757023 9.15686 0.757023H12.6001C12.9596 0.757023 13.2433 1.04075 13.2433 1.40023V4.84345Z" fill="white"/>
<path d="M1.40003 14.0001H4.84325C5.61896 14.0001 6.24328 13.3758 6.24328 12.6001V9.15686C6.24328 8.38116 5.61896 7.75684 4.84325 7.75684H1.40003C0.624321 7.75684 0 8.38116 0 9.15686V12.6001C0.000131959 13.3757 0.624456 14 1.40003 14V14.0001ZM0.75682 9.1569C0.75682 8.7974 1.04055 8.51369 1.40003 8.51369H4.84325C5.20274 8.51369 5.48646 8.79742 5.48646 9.1569V12.6001C5.48646 12.9596 5.20273 13.2433 4.84325 13.2433H1.40003C1.04053 13.2433 0.75682 12.9596 0.75682 12.6001V9.1569Z" fill="white"/>
<path d="M10.8785 7.75684C9.15686 7.75684 7.75684 9.15686 7.75684 10.8785C7.75684 12.6002 9.15686 14 10.8785 14C12.6002 14 14 12.6001 14 10.8785C14 9.15686 12.6001 7.75684 10.8785 7.75684ZM10.8785 13.2433C9.57307 13.2433 8.51366 12.1839 8.51366 10.8784C8.51366 9.57301 9.57307 8.51359 10.8785 8.51359C12.1839 8.51359 13.2434 9.57301 13.2434 10.8784C13.2434 12.1839 12.1839 13.2433 10.8785 13.2433Z" fill="white"/>
</svg>
