<svg width="23" height="16" viewBox="0 0 23 16" fill="none" xmlns="http://www.w3.org/2000/svg">
<path d="M17.5636 9.81643V6.46699H14.2545V4.9211H17.5636V1.57166H19.0909V4.9211H22.4V6.46699H19.0909V9.81643H17.5636ZM8.14545 7.72947C7.02545 7.72947 6.10909 7.36876 5.39636 6.64734C4.68364 5.92593 4.32727 4.99839 4.32727 3.86473C4.32727 2.73108 4.68364 1.80354 5.39636 1.08213C6.10909 0.360709 7.02545 0 8.14545 0C9.26545 0 10.1818 0.360709 10.8945 1.08213C11.6073 1.80354 11.9636 2.73108 11.9636 3.86473C11.9636 4.99839 11.6073 5.92593 10.8945 6.64734C10.1818 7.36876 9.26545 7.72947 8.14545 7.72947ZM0 16V13.5781C0 12.9769 0.148485 12.4316 0.445455 11.942C0.742424 11.4525 1.17091 11.0875 1.73091 10.847C3.00364 10.2802 4.13499 9.88084 5.12497 9.64895C6.11496 9.41707 7.12042 9.30113 8.14133 9.30113C9.16226 9.30113 10.1648 9.41707 11.1491 9.64895C12.1333 9.88084 13.2618 10.2802 14.5345 10.847C15.0945 11.1047 15.5273 11.474 15.8327 11.9549C16.1382 12.4359 16.2909 12.9769 16.2909 13.5781V16H0ZM1.52727 14.4541H14.7636V13.5781C14.7636 13.3033 14.6873 13.0413 14.5345 12.7923C14.3818 12.5432 14.1782 12.3586 13.9236 12.2383C12.7188 11.6715 11.7006 11.2979 10.8691 11.1176C10.0376 10.9372 9.1297 10.847 8.14545 10.847C7.16121 10.847 6.24909 10.9372 5.40909 11.1176C4.56909 11.2979 3.54667 11.6715 2.34182 12.2383C2.08727 12.3586 1.88788 12.5432 1.74364 12.7923C1.59939 13.0413 1.52727 13.3033 1.52727 13.5781V14.4541ZM8.14545 6.18357C8.80727 6.18357 9.35455 5.96457 9.78727 5.52657C10.22 5.08857 10.4364 4.53462 10.4364 3.86473C10.4364 3.19485 10.22 2.6409 9.78727 2.2029C9.35455 1.7649 8.80727 1.54589 8.14545 1.54589C7.48364 1.54589 6.93636 1.7649 6.50364 2.2029C6.07091 2.6409 5.85455 3.19485 5.85455 3.86473C5.85455 4.53462 6.07091 5.08857 6.50364 5.52657C6.93636 5.96457 7.48364 6.18357 8.14545 6.18357Z" fill="#30B3D5"/>
</svg>
