<svg width="24" height="24" viewBox="0 0 24 24" fill="none" xmlns="http://www.w3.org/2000/svg">
<path d="M11.985 23.97C10.2871 23.97 8.70911 23.6654 7.25094 23.0562C5.79276 22.4469 4.52434 21.603 3.44569 20.5243C2.36704 19.4457 1.5231 18.1773 0.913858 16.7191C0.304619 15.2609 0 13.6829 0 11.985C0 10.3071 0.304619 8.73908 0.913858 7.2809C1.5231 5.82272 2.36704 4.55431 3.44569 3.47566C4.52434 2.397 5.79276 1.54807 7.25094 0.928839C8.70911 0.309613 10.2871 0 11.985 0C13.4831 0 14.8814 0.2397 16.1798 0.719101C17.4782 1.1985 18.6467 1.85768 19.6854 2.69663L18.397 3.98502C17.5181 3.28589 16.5393 2.74657 15.4607 2.36704C14.382 1.98752 13.2235 1.79775 11.985 1.79775C9.08864 1.79775 6.66667 2.77154 4.7191 4.7191C2.77154 6.66667 1.79775 9.08864 1.79775 11.985C1.79775 14.8814 2.77154 17.3034 4.7191 19.2509C6.66667 21.1985 9.08864 22.1723 11.985 22.1723C14.8814 22.1723 17.3034 21.1985 19.2509 19.2509C21.1985 17.3034 22.1723 14.8814 22.1723 11.985C22.1723 11.3858 22.1273 10.8015 22.0375 10.2322C21.9476 9.66292 21.8127 9.10861 21.633 8.56929L23.0112 7.19101C23.3308 7.93009 23.5705 8.69913 23.7303 9.49813C23.8901 10.2971 23.97 11.1261 23.97 11.985C23.97 13.6829 23.6604 15.2609 23.0412 16.7191C22.422 18.1773 21.573 19.4457 20.4944 20.5243C19.4157 21.603 18.1473 22.4469 16.6891 23.0562C15.231 23.6654 13.6629 23.97 11.985 23.97ZM10.2172 17.4382L5.27341 12.4644L6.62172 11.1161L10.2172 14.7116L22.6217 2.30712L24 3.65543L10.2172 17.4382Z" fill="#008000"/>
</svg>
