<svg width="24" height="24" viewBox="0 0 24 24" fill="none" xmlns="http://www.w3.org/2000/svg">
<circle cx="12" cy="12" r="12" fill="#E6E6E6"/>
<path d="M17.5048 11.3884C17.3602 11.3886 17.2215 11.4475 17.1193 11.5524C17.0171 11.6573 16.9597 11.7994 16.9597 11.9475V15.3002C16.9592 15.5965 16.8441 15.8804 16.6397 16.09C16.4352 16.2994 16.1581 16.4173 15.8689 16.4178H8.23242C7.94323 16.4173 7.66611 16.2994 7.46158 16.09C7.25715 15.8804 7.14207 15.5965 7.1416 15.3002V7.47663C7.14208 7.18034 7.25716 6.89643 7.46158 6.68689C7.6661 6.47745 7.94323 6.35955 8.23242 6.35907H11.5049C11.6527 6.36397 11.796 6.30732 11.9022 6.20197C12.0084 6.09661 12.0684 5.95166 12.0684 5.80034C12.0684 5.64892 12.0084 5.50398 11.9022 5.39861C11.796 5.29323 11.6527 5.2366 11.5049 5.2415H8.23242C7.65396 5.24199 7.09931 5.4776 6.69027 5.89666C6.28122 6.31573 6.05125 6.88398 6.05078 7.47662V15.3002C6.05126 15.8929 6.28123 16.4611 6.69027 16.8802C7.0993 17.2992 7.65396 17.5349 8.23242 17.5353H15.8689C16.4473 17.5349 17.002 17.2992 17.411 16.8802C17.8201 16.4611 18.05 15.8929 18.0505 15.3002V11.9475C18.0503 11.7993 17.9928 11.6572 17.8905 11.5524C17.7882 11.4475 17.6495 11.3886 17.5048 11.3884L17.5048 11.3884Z" fill="#6E6E6E"/>
<path d="M17.9076 5.43075C17.9007 5.42311 17.8978 5.41262 17.8905 5.40556C17.883 5.39851 17.8733 5.39498 17.8659 5.38802C17.8217 5.34558 17.7709 5.31089 17.7156 5.28561C17.6489 5.2566 17.5772 5.2416 17.5047 5.2417H14.2322C14.0415 5.24807 13.8679 5.35588 13.7744 5.52621C13.6808 5.69645 13.6808 5.90451 13.7744 6.07474C13.8679 6.24508 14.0415 6.35298 14.2322 6.35925H16.1881L12.2106 10.435C12.1058 10.5392 12.0461 10.6821 12.0449 10.8317C12.0438 10.9813 12.1014 11.1252 12.2046 11.2309C12.3078 11.3367 12.4482 11.3957 12.5942 11.3945C12.7403 11.3933 12.8798 11.3321 12.9814 11.2247L16.9597 7.14972V9.15363C16.9658 9.34896 17.0711 9.52683 17.2374 9.62267C17.4036 9.71852 17.6067 9.71852 17.7728 9.62267C17.9391 9.52683 18.0443 9.34895 18.0505 9.15363V5.80094C18.0505 5.72675 18.0362 5.65334 18.0082 5.58484C17.9831 5.52829 17.9491 5.47625 17.9077 5.43087L17.9076 5.43075Z" fill="#6E6E6E"/>
</svg>
