<svg width="17" height="17" viewBox="0 0 17 17" fill="none" xmlns="http://www.w3.org/2000/svg">
<path d="M4.20287 6.56343C4.2134 6.6332 4.19576 6.70433 4.1539 6.7611M4.20287 6.56343L4.20288 6.56343L4.20287 6.56343ZM4.20287 6.56343L4.1539 6.7611M4.1539 6.7611C4.1119 6.81788 4.04911 6.85563 3.97934 6.86617L4.1539 6.7611ZM16.2211 1.22949V1.27041V16.263C16.2211 16.263 16.2211 16.2631 16.2211 16.2631C16.221 16.4653 16.0572 16.6292 15.855 16.6292C15.8371 16.6292 15.8188 16.6279 15.8004 16.625C15.8003 16.625 15.8001 16.625 15.7999 16.625L12.238 16.0887L8.67556 16.625C8.67555 16.625 8.67553 16.625 8.67552 16.625C8.63938 16.6305 8.60267 16.6305 8.56654 16.625C8.56652 16.625 8.5665 16.625 8.56649 16.625L5.00406 16.0887L1.44228 16.625C1.42369 16.6279 1.40524 16.6292 1.38717 16.6292C1.29006 16.6292 1.19691 16.5906 1.12822 16.5219L1.12813 16.5218C1.05966 16.4532 1.02109 16.3601 1.02109 16.263L1.02109 1.27038L1.02109 1.27027H1.12109L16.2211 1.22949ZM16.2211 1.22949L16.2184 1.22676M16.2211 1.22949L16.2184 1.22676M16.2184 1.22676C16.1993 1.06501 16.0739 0.932936 15.9093 0.908321L16.2184 1.22676ZM2.70382 7.05823C2.69068 7.06015 2.67728 7.0611 2.66387 7.0611C2.52475 7.06097 2.40915 6.95344 2.39889 6.81473L2.70382 7.05823ZM4.23438 6.82045C4.29036 6.74453 4.31487 6.64995 4.30287 6.55652L3.88524 6.24088L3.88501 6.24091L2.60977 6.43294C2.60976 6.43294 2.60975 6.43294 2.60975 6.43294C2.60974 6.43294 2.60973 6.43294 2.60972 6.43294C2.42026 6.4614 2.28506 6.63122 2.29916 6.8221L2.29916 6.8221C2.31328 7.01298 2.4723 7.16092 2.66377 7.1611H2.66387C2.68201 7.1611 2.70024 7.15981 2.71825 7.15719L2.71871 7.15712L3.99423 6.96505L3.99427 6.96504C4.09019 6.95056 4.17653 6.89865 4.23429 6.82057L4.23438 6.82045ZM15.9092 0.908301L12.2935 0.36402L12.2924 0.363855L15.9092 0.908301ZM12.2401 0.360963C12.2295 0.360844 12.2186 0.361133 12.2074 0.361959V0.361405L12.1987 0.362596L12.1972 0.362618C12.1943 0.362715 12.1899 0.362952 12.1848 0.363648L12.1834 0.363855L8.62127 0.900057L5.05963 0.363981L5.05879 0.363855L12.2401 0.360963ZM4.96474 0.362767L4.96678 0.40798L4.96093 0.363171C4.96235 0.362986 4.96363 0.362857 4.96474 0.362767ZM4.96658 0.362574L4.96359 0.362616C4.96068 0.362713 4.95653 0.362943 4.95163 0.363581L4.95163 0.363562L4.94968 0.363855L1.33288 0.908302C1.33286 0.908305 1.33284 0.908308 1.33281 0.908312L4.96658 0.362574ZM4.96922 0.362536L4.96822 0.362565L4.96922 0.362536ZM14.9432 6.82193C14.9574 6.63104 14.8221 6.46121 14.6326 6.43277L14.6278 6.43205L13.3572 6.24071L13.3569 6.24068C13.1572 6.21113 12.9713 6.34871 12.9412 6.54835L12.9412 6.54844C12.9113 6.74802 13.0484 6.93435 13.248 6.96485L13.2482 6.96489L14.5237 7.15695L14.5242 7.15702C14.5421 7.15964 14.5604 7.16094 14.5784 7.16094H14.5785C14.77 7.16075 14.9291 7.01303 14.9432 6.82193L14.8435 6.81456L14.9432 6.82193ZM15.4888 3.56736L12.6041 3.13316V1.15129L15.4888 1.58562V3.56736ZM8.25495 1.58562V13.1151L5.3704 12.6809V1.15129L8.25495 1.58562ZM4.63795 1.15129V3.13316L1.7534 3.56736V1.58562L4.63795 1.15129ZM4.63795 15.4032L1.7534 15.8374V4.30778L4.63795 3.87358V15.4032ZM5.37033 13.4212L8.25488 13.8554V15.8374L5.37033 15.4032V13.4212ZM11.8718 15.4032L8.98727 15.8374V1.58541L11.8718 1.15108V15.4032ZM12.6041 3.87358L15.4888 4.30778V15.8374L12.6041 15.4032V3.87358Z" fill="#222222" stroke="#222222" stroke-width="0.2"/>
</svg>
