<svg width="82" height="47" viewBox="0 0 82 47" fill="none" xmlns="http://www.w3.org/2000/svg">
<rect x="0.5" y="0.5" width="81" height="45.12" fill="#EFEFEF" stroke="#5E5E5E" stroke-dasharray="6 6"/>
<path d="M50.3333 11H31.6667C30.2 11 29 12.2 29 13.6667V32.3333C29 33.8 30.2 35 31.6667 35H50.3333C51.8 35 53 33.8 53 32.3333V13.6667C53 12.2 51.8 11 50.3333 11ZM31.6667 33.9333C30.7867 33.9333 30.0667 33.2133 30.0667 32.3333V30.1467L36.4667 23.24L46.76 33.9333H31.6667ZM51.9333 32.3333C51.9333 33.2133 51.2133 33.9333 50.3333 33.9333H48.2267L40.5467 25.9333L46.4667 19.7733L51.9333 25.6667V32.3333ZM51.9333 24.0933L46.8667 18.6267L46.84 18.6C46.8133 18.6 46.8133 18.5733 46.7867 18.5733C46.7867 18.5733 46.76 18.5467 46.7333 18.5467C46.7067 18.5467 46.7067 18.52 46.68 18.52C46.6533 18.52 46.6533 18.52 46.6267 18.4933H46.3067C46.28 18.4933 46.28 18.4933 46.2533 18.52C46.2267 18.52 46.2267 18.5467 46.2 18.5467C46.1733 18.5467 46.1733 18.5733 46.1467 18.5733C46.12 18.5733 46.12 18.6 46.0933 18.6L46.0667 18.6267L39.8 25.16L36.84 22.0933C36.84 22.0933 36.8133 22.0933 36.8133 22.0667C36.7867 22.04 36.7867 22.04 36.76 22.04C36.76 22.04 36.7333 22.0133 36.7067 22.0133C36.68 22.0133 36.68 21.9867 36.6533 21.9867C36.6267 21.9867 36.6267 21.9867 36.6 21.96H36.28C36.2533 21.96 36.2533 21.96 36.2267 21.9867C36.2 21.9867 36.2 21.9867 36.1733 22.0133C36.1467 22.0133 36.1467 22.04 36.12 22.04C36.0933 22.04 36.0933 22.0667 36.0667 22.0667C36.0667 22.0667 36.04 22.0667 36.04 22.0933L30.0667 28.5733V13.6667C30.0667 12.7867 30.7867 12.0667 31.6667 12.0667H50.3333C51.2133 12.0667 51.9333 12.7867 51.9333 13.6667V24.0933ZM34.8667 14.2C33.4 14.2 32.2 15.4 32.2 16.8667C32.2 18.3333 33.4 19.5333 34.8667 19.5333C36.3333 19.5333 37.5333 18.3333 37.5333 16.8667C37.5333 15.4 36.3333 14.2 34.8667 14.2ZM34.8667 18.4667C33.9867 18.4667 33.2667 17.7467 33.2667 16.8667C33.2667 15.9867 33.9867 15.2667 34.8667 15.2667C35.7467 15.2667 36.4667 15.9867 36.4667 16.8667C36.4667 17.7467 35.7467 18.4667 34.8667 18.4667Z" fill="#B6B6B6"/>
</svg>
