<svg width="13" height="16" viewBox="0 0 13 16" fill="none" xmlns="http://www.w3.org/2000/svg">
<path d="M2.76465 4.91162L2.76465 4.47044C2.76465 2.27755 4.54234 0.499857 6.73523 0.499856V0.499856C8.92813 0.499855 10.7058 2.27755 10.7058 4.47044L10.7058 4.91162" stroke="#222222" stroke-linecap="round"/>
<path d="M9.82324 9.32281V7.55811" stroke="#222222" stroke-linecap="round"/>
<path d="M3.64746 9.32281V7.55811" stroke="#222222" stroke-linecap="round"/>
<path d="M1 8.51162C1 6.81457 1 5.96604 1.52721 5.43883C2.05442 4.91162 2.90294 4.91162 4.6 4.91162H8.87059C10.5676 4.91162 11.4162 4.91162 11.9434 5.43883C12.4706 5.96604 12.4706 6.81456 12.4706 8.51162V9.76456C12.4706 12.3364 12.4706 13.6224 11.7337 14.4692C11.6427 14.5738 11.5445 14.672 11.4399 14.763C10.5931 15.4999 9.30718 15.4999 6.73529 15.4999V15.4999C4.16341 15.4999 2.87747 15.4999 2.03066 14.763C1.92606 14.672 1.8279 14.5738 1.73688 14.4692C1 13.6224 1 12.3364 1 9.76456V8.51162Z" stroke="#222222"/>
</svg>
