<svg width="8" height="12" viewBox="0 0 8 12" fill="none" xmlns="http://www.w3.org/2000/svg">
<path d="M5.99486 10.8883C5.83094 10.7353 5.66568 10.5822 5.50176 10.4291C5.10619 10.062 4.71199 9.69353 4.31641 9.32639C3.83957 8.88341 3.36409 8.44043 2.88724 7.99747C2.47406 7.61275 2.0609 7.22802 1.64771 6.84464C1.44722 6.65769 1.2508 6.46534 1.04488 6.2838C1.04217 6.28109 1.03946 6.27838 1.03675 6.27567C1.07604 6.37185 1.11668 6.46668 1.15597 6.56287V6.17542L0.749569 6.58181H1.53935C1.8103 6.58181 2.08392 6.5913 2.35487 6.57911C3.51039 6.52627 4.5928 5.85435 5.13048 4.82481C5.67235 3.78712 5.63036 2.49748 4.98553 1.51389C4.67396 1.03975 4.24452 0.63605 3.73788 0.375952C3.26509 0.132109 2.74354 0.00341797 2.21115 0.00341797H0.462258H0.406716C0.194033 0.00341797 -0.00916767 0.190364 0.000319694 0.409814C0.00980236 0.630627 0.179138 0.816211 0.406716 0.816211H2.11902C2.27888 0.816211 2.43872 0.820274 2.59723 0.840595C2.56066 0.835176 2.52544 0.831112 2.48886 0.825693C2.74353 0.859561 2.99144 0.927295 3.2285 1.02619L3.13097 0.985547C3.30165 1.0587 3.46557 1.14675 3.61866 1.24971C3.65794 1.2768 3.69723 1.30389 3.73516 1.33234C3.75955 1.34995 3.81238 1.39737 3.70942 1.31202C3.72703 1.32692 3.746 1.34182 3.76496 1.35673C3.83541 1.41498 3.9045 1.47729 3.96952 1.54232C4.03454 1.60734 4.09686 1.67508 4.15511 1.74687C4.16595 1.76042 4.1971 1.78616 4.19982 1.80241C4.19575 1.78209 4.13344 1.71571 4.17949 1.77667C4.20794 1.8146 4.23504 1.85389 4.26213 1.89318C4.36644 2.04761 4.45449 2.21017 4.52629 2.38087L4.48565 2.28333C4.58454 2.5204 4.65228 2.7683 4.68614 3.02298C4.68072 2.9864 4.67666 2.95118 4.67124 2.9146C4.70375 3.16385 4.70375 3.41719 4.67124 3.66646C4.67666 3.62988 4.68072 3.59466 4.68614 3.55808C4.65228 3.81276 4.58454 4.06067 4.48565 4.29773L4.52629 4.20019C4.45314 4.37088 4.36508 4.5348 4.26213 4.68789C4.23503 4.72717 4.20794 4.76646 4.17949 4.80439C4.16188 4.82877 4.11447 4.88161 4.19982 4.77865C4.18491 4.79626 4.17001 4.81523 4.15511 4.83419C4.09686 4.90463 4.03454 4.97372 3.96952 5.03875C3.9045 5.10377 3.83676 5.16608 3.76496 5.22434C3.75142 5.23517 3.72568 5.26633 3.70942 5.26904C3.72974 5.26498 3.79612 5.20266 3.73516 5.24872C3.69723 5.27717 3.65794 5.30426 3.61866 5.33136C3.46423 5.43567 3.30166 5.52372 3.13097 5.59552C3.16348 5.58197 3.19599 5.56842 3.2285 5.55488C2.99143 5.65377 2.74353 5.7215 2.48886 5.75537C2.52544 5.74995 2.56066 5.74589 2.59723 5.74047C2.3561 5.77163 2.11362 5.76485 1.87114 5.76485H0.974348H0.749472C0.530014 5.76485 0.343076 5.95044 0.343076 6.17125C0.343076 6.29723 0.340367 6.42322 0.343076 6.54921C0.345786 6.67519 0.398618 6.78627 0.488027 6.87027C0.574726 6.95019 0.661426 7.03147 0.748125 7.1114C1.12608 7.46226 1.50404 7.81448 1.88198 8.16534C2.3832 8.63134 2.88444 9.09736 3.38566 9.56471C3.83677 9.98466 4.28924 10.4046 4.74035 10.8246C4.96387 11.0332 5.1847 11.2431 5.41091 11.4491C5.41362 11.4518 5.41768 11.4545 5.42039 11.4572C5.57618 11.6021 5.84304 11.6225 5.99478 11.4572C6.13973 11.3055 6.16141 11.0427 5.99478 10.8882L5.99486 10.8883Z" fill="black"/>
<path d="M0.406716 0.815201H1.12198H2.84106H4.91235H6.70866C6.99992 0.815201 7.29118 0.82062 7.58107 0.815201H7.59327C7.80595 0.815201 8.00915 0.628255 7.99966 0.408805C7.99018 0.187992 7.82084 0.00240831 7.59327 0.00240831H6.878H5.15893H3.08763H1.29132C1.00006 0.00240831 0.708805 -0.00301039 0.418908 0.00240831H0.406716C0.194033 0.00240831 -0.00916767 0.189354 0.000319693 0.408805C0.00980235 0.629618 0.179138 0.815201 0.406716 0.815201Z" fill="black"/>
<path d="M0.406716 3.69948H1.12198H2.84106H4.91235H6.70866C6.99992 3.69948 7.29118 3.7049 7.58107 3.69948H7.59327C7.80595 3.69948 8.00915 3.51253 7.99966 3.29308C7.99018 3.07227 7.82084 2.88669 7.59327 2.88669H6.878H5.15893H3.08763H1.29132C1.00006 2.88669 0.708805 2.88127 0.418908 2.88669H0.406716C0.194033 2.88669 -0.00916767 3.07363 0.000319693 3.29308C0.00980235 3.51254 0.179138 3.69948 0.406716 3.69948Z" fill="black"/>
</svg>
