<svg width="174" height="48" viewBox="0 0 174 48" fill="none" xmlns="http://www.w3.org/2000/svg">
<path d="M22.5703 0L43.297 20.7267C45.7552 23.1848 45.7551 27.1702 43.297 29.6283L27.0211 45.9043C24.563 48.3624 20.5776 48.3624 18.1195 45.9043L1.84358 29.6283C-0.614528 27.1702 -0.614527 23.1848 1.84358 20.7267L22.5703 0Z" fill="#30B3D5"/>
<path fill-rule="evenodd" clip-rule="evenodd" d="M32.6404 17.7865L29.6195 20.8075L39.6905 30.8785L42.7114 27.8576L22.5698 48L2.42781 27.858L22.5698 7.71598L32.6404 17.7865ZM22.5698 48L39.6905 30.8785L22.5695 13.7579L15.5198 20.8075L12.4993 17.787L2.42781 27.858L22.5698 48Z" fill="white"/>
<path d="M121.486 33.57L116.904 15.9458H118.515L122.368 31.1782L126.9 15.9458H128.435L132.993 31.2034L136.794 15.9458H138.381L133.798 33.57H132.262L127.655 18.4887L123.047 33.57H121.486Z" fill="#30B3D5"/>
<path d="M140.23 28.6856V25.2111C140.23 24.5565 140.322 23.9438 140.507 23.3731C140.692 22.7857 140.985 22.2402 141.388 21.7366C141.791 21.2331 142.345 20.8302 143.05 20.5281C143.772 20.226 144.611 20.0749 145.568 20.0749C147.414 20.0749 148.765 20.5784 149.621 21.5855C150.477 22.5926 150.905 23.8012 150.905 25.2111V28.6856C150.905 30.1123 150.477 31.3292 149.621 32.3363C148.765 33.3434 147.414 33.847 145.568 33.847C144.611 33.847 143.772 33.6959 143.05 33.3938C142.345 33.0917 141.791 32.6888 141.388 32.1853C140.985 31.6817 140.692 31.1362 140.507 30.5487C140.322 29.9613 140.23 29.3402 140.23 28.6856ZM149.42 28.7108V25.2111C149.42 24.1536 149.109 23.2473 148.488 22.4919C147.867 21.7198 146.894 21.3338 145.568 21.3338C144.242 21.3338 143.268 21.7198 142.647 22.4919C142.026 23.2473 141.716 24.1536 141.716 25.2111V28.7108C141.716 29.7515 142.026 30.6578 142.647 31.43C143.268 32.2021 144.242 32.5881 145.568 32.5881C146.894 32.5881 147.867 32.2021 148.488 31.43C149.109 30.6578 149.42 29.7515 149.42 28.7108Z" fill="#30B3D5"/>
<path d="M156.086 33.57H154.6V20.3518H155.91L156.036 22.9199C156.824 21.04 158.394 20.1001 160.744 20.1001V21.5352H160.467C158.956 21.5352 157.848 21.98 157.143 22.8696C156.438 23.7592 156.086 24.8838 156.086 26.2434V33.57Z" fill="#30B3D5"/>
<path d="M164.888 28.9626V33.57H163.403V15.1904H164.888V27.0994L171.535 20.3518H173.373L168.061 25.765L173.877 33.57H172.064L167.053 26.7721L164.888 28.9626Z" fill="#30B3D5"/>
<path d="M68.3516 20.654H66.7906V20.4022C66.7906 19.3447 66.4465 18.5223 65.7583 17.9348C65.0701 17.3305 63.8784 17.0284 62.1831 17.0284C59.2625 17.0284 57.8022 18.1278 57.8022 20.3267C57.8022 21.1156 58.0372 21.7366 58.5072 22.1898C58.9772 22.643 59.7241 22.9871 60.748 23.2221L64.7512 24.1285C67.3865 24.7495 68.7041 26.2098 68.7041 28.5094C68.7041 30.1711 68.2089 31.4803 67.2186 32.4371C66.2451 33.377 64.7344 33.847 62.6867 33.847C58.2722 33.847 56.065 32.3783 56.065 29.4409V29.164H57.6008V29.4158C57.6008 30.3725 57.9701 31.1278 58.7086 31.6817C59.4639 32.2189 60.79 32.4874 62.6867 32.4874C64.1638 32.4874 65.2632 32.1601 65.9849 31.5055C66.7235 30.8341 67.0927 29.8857 67.0927 28.6604C67.0927 27.0491 66.136 26.0168 64.2225 25.5636L60.2193 24.6572C58.8933 24.3551 57.9029 23.8683 57.2483 23.1969C56.5937 22.5255 56.2664 21.6023 56.2664 20.4274C56.2664 18.9839 56.7532 17.8341 57.7267 16.978C58.7002 16.1052 60.1941 15.6688 62.2083 15.6688C64.3736 15.6688 65.9346 16.1052 66.8913 16.978C67.8649 17.8341 68.3516 18.9671 68.3516 20.377V20.654Z" fill="white"/>
<path d="M73.7671 28.9626V33.57H72.2817V15.1904H73.7671V27.0994L80.414 20.3518H82.252L76.9395 25.765L82.7555 33.57H80.9427L75.9324 26.7721L73.7671 28.9626Z" fill="white"/>
<path d="M88.8263 32.6133C91.5622 32.6133 92.9302 31.3712 92.9302 28.887V27.2001H89.0025C87.7436 27.2001 86.8456 27.4267 86.3085 27.8799C85.7714 28.3331 85.5028 28.9877 85.5028 29.8438C85.5028 31.6901 86.6106 32.6133 88.8263 32.6133ZM93.0813 33.57L93.0309 31.7321C92.3259 33.142 90.8069 33.847 88.4738 33.847C85.5028 33.847 84.0174 32.521 84.0174 29.8689C84.0174 27.2673 85.6119 25.9664 88.8011 25.9664H92.9302V24.7076C92.9302 23.7005 92.6449 22.8864 92.0742 22.2653C91.5203 21.6275 90.6223 21.3086 89.3802 21.3086C88.1884 21.3086 87.282 21.5436 86.661 22.0136C86.0567 22.4835 85.7546 23.0542 85.7546 23.7256V23.927H84.3447V23.7256C84.3447 22.7017 84.7727 21.8373 85.6287 21.1323C86.4848 20.4274 87.7436 20.0749 89.4054 20.0749C91.151 20.0749 92.4183 20.5029 93.2072 21.3589C94.0128 22.215 94.4157 23.348 94.4157 24.7579V33.57H93.0813Z" fill="white"/>
<path d="M100.028 33.57H98.5176V15.1904H100.028V33.57Z" fill="white"/>
<path d="M114.29 29.8689C114.29 30.9432 113.879 31.8748 113.056 32.6637C112.251 33.4526 110.941 33.847 109.129 33.847C107.282 33.847 105.931 33.3602 105.075 32.3867C104.236 31.4132 103.816 30.2382 103.816 28.8618V25.2111C103.816 23.8012 104.244 22.5926 105.1 21.5855C105.956 20.5784 107.291 20.0749 109.103 20.0749C110.916 20.0749 112.242 20.5784 113.081 21.5855C113.938 22.5926 114.366 23.8012 114.366 25.2111V27.2505H105.276V28.9877C105.276 29.9948 105.587 30.8509 106.208 31.5558C106.829 32.2608 107.803 32.6133 109.129 32.6133C110.421 32.6133 111.369 32.3363 111.974 31.7824C112.578 31.2285 112.88 30.5739 112.88 29.8186V29.592H114.29V29.8689ZM105.276 25.0349V26.042H112.93V25.0349C112.93 24.011 112.62 23.1298 111.999 22.3912C111.378 21.6527 110.413 21.2834 109.103 21.2834C107.794 21.2834 106.829 21.6611 106.208 22.4164C105.587 23.1549 105.276 24.0278 105.276 25.0349Z" fill="white"/>
</svg>
