<svg width="20" height="16" viewBox="0 0 20 16" fill="none" xmlns="http://www.w3.org/2000/svg">
<path d="M17.5175 0H2.47994C1.82218 0.000634139 1.19169 0.262215 0.726549 0.7272C0.261405 1.19234 -0.000164864 1.82283 -0.000976562 2.48043V13.3734C-0.000342383 14.0312 0.261239 14.6618 0.726386 15.1268C1.19153 15.592 1.82218 15.8535 2.47994 15.8543H17.5175C18.1755 15.8535 18.8064 15.5918 19.2717 15.1265C19.7368 14.6612 19.9985 14.0302 19.999 13.3723V2.48173C19.9984 1.8238 19.7367 1.19299 19.2715 0.72785C18.8062 0.262544 18.1754 0.000811919 17.5175 0.00016256V0ZM17.5175 0.681867C17.9947 0.682343 18.452 0.872109 18.7896 1.20963C19.1269 1.547 19.3167 2.00453 19.3173 2.48156V4.3423H17.7087V2.48047C17.7083 1.79941 17.4273 1.14863 16.9314 0.681908L17.5175 0.681867ZM19.3173 10.8297H14.5884C14.0687 10.8291 13.5704 10.6224 13.2029 10.2549C12.8354 9.88739 12.6287 9.38912 12.6281 8.86943V6.98446C12.6287 6.46477 12.8354 5.96651 13.2029 5.59901C13.5704 5.23153 14.0687 5.02482 14.5884 5.02417H19.3173V10.8297ZM0.680728 13.3734V2.48043C0.681362 2.00339 0.871128 1.54616 1.20833 1.20882C1.54569 0.871618 2.0029 0.681867 2.47994 0.68138H15.2366C15.712 0.684075 16.167 0.874792 16.5025 1.21166C16.8379 1.54871 17.0264 2.00449 17.0271 2.47994V4.34177H14.5888C13.8882 4.34257 13.2167 4.62127 12.7213 5.1167C12.226 5.61212 11.9475 6.28384 11.9468 6.98442V8.86938C11.9474 9.56996 12.2262 10.2415 12.7214 10.7368C13.2168 11.232 13.8884 11.5107 14.5888 11.5115H17.0271V13.3734C17.0264 13.8488 16.8379 14.3048 16.5025 14.6417C16.167 14.9786 15.712 15.1693 15.2366 15.1719H2.47994C2.00307 15.1715 1.54567 14.9819 1.20849 14.6447C0.87129 14.3075 0.68154 13.8502 0.680728 13.3734V13.3734ZM17.5178 15.1721L16.9312 15.172C17.4271 14.7053 17.7083 14.0545 17.7085 13.3734V11.5116H19.3176V13.3723C19.317 13.8494 19.1272 14.3069 18.7898 14.6443C18.4523 14.9818 17.9949 15.1715 17.5177 15.172L17.5178 15.1721Z" fill="white"/>
<path d="M15.973 9.27176C16.3297 9.2716 16.6716 9.12987 16.9239 8.87764C17.1759 8.62541 17.3177 8.28344 17.3175 7.92674C17.3175 7.57003 17.1758 7.22807 16.9235 6.97583C16.6713 6.72376 16.3293 6.58203 15.9726 6.58203C15.6161 6.58219 15.274 6.72376 15.0217 6.97599C14.7697 7.22822 14.6279 7.57019 14.6279 7.92689C14.6282 8.28344 14.7701 8.6254 15.0224 8.87747C15.2744 9.12954 15.6164 9.27143 15.9729 9.27175L15.973 9.27176ZM15.973 7.26406V7.2639C16.1488 7.26406 16.3174 7.33382 16.4417 7.45827C16.566 7.58256 16.6358 7.75124 16.6358 7.92706C16.6356 8.10288 16.5659 8.2714 16.4414 8.3957C16.3171 8.52015 16.1485 8.5899 15.9726 8.5899C15.7968 8.5899 15.6283 8.51999 15.504 8.3957C15.3795 8.27141 15.3098 8.10272 15.3098 7.9269C15.3099 7.75109 15.3799 7.58256 15.5043 7.45827C15.6286 7.33398 15.7971 7.26406 15.9729 7.2639L15.973 7.26406Z" fill="white"/>
</svg>
